<svg width="236" height="264" viewBox="0 0 236 264" fill="none" xmlns="http://www.w3.org/2000/svg">
<g filter="url(#filter0_d_1_446)">
<g clip-path="url(#clip0_1_446)">
<g filter="url(#filter1_bii_1_446)">
<rect width="70.464" height="111.789" rx="3.57578" transform="matrix(0.285354 -0.958422 0.824126 0.566406 33.2579 87.5342)" fill="#00674C" fill-opacity="0.7"/>
</g>
<rect opacity="0.48" width="14.6236" height="14.6236" rx="6.4364" transform="matrix(0.824126 0.566406 -0.285354 0.958422 119.62 73.5088)" fill="#3A3A3A"/>
<rect opacity="0.7" width="14.6236" height="14.6236" rx="6.4364" transform="matrix(0.824126 0.566406 -0.285354 0.958422 126.896 78.5092)" fill="white"/>
<g filter="url(#filter2_i_1_446)">
<rect width="14.8402" height="10.6156" rx="1.6687" transform="matrix(0.824126 0.566406 -0.285354 0.958422 57.3092 50.0057)" fill="url(#paint0_linear_1_446)"/>
</g>
<path d="M56.2467 53.5174L60.4056 56.3758C60.9489 55.6163 62.2663 54.1872 63.1891 54.5471C63.4681 54.8947 64.0713 55.8706 64.2522 56.9927M55.2757 56.7789L59.4346 59.6372C58.9537 61.2524 59.8414 63.2844 60.3454 64.0984C61.5034 64.4204 62.8693 63.0788 63.4076 62.3678L67.52 65.1941M68.2598 62.7092L64.1474 59.8829C64.0823 59.3496 64.1005 58.2355 64.6946 58.0451" stroke="url(#paint1_linear_1_446)" stroke-width="0.143031"/>
<path d="M72.0687 65.8087C72.1248 66.2224 72.1043 67.1339 71.5742 67.4698M73.2284 65.8867C73.3048 66.5332 73.2417 68.0093 72.3784 68.7417M74.2843 65.862C74.3761 66.7275 74.265 68.7439 73.0865 69.8849M75.3685 66.013C75.506 67.056 75.4003 69.5179 73.877 71.0223" stroke="white" stroke-width="0.524448" stroke-linecap="round" stroke-linejoin="round"/>
<path d="M47.6215 87.6682C48.3262 88.1525 48.928 87.9057 49.1891 87.0289L49.1902 87.025C49.4507 86.1501 49.1737 85.2993 48.4707 84.8161C47.7692 84.334 47.1647 84.5767 46.9036 85.4535L46.9025 85.4573C46.6414 86.3342 46.9168 87.1839 47.6215 87.6682ZM47.7671 87.1792C47.3778 86.9116 47.2367 86.382 47.4084 85.805L47.4096 85.8012C47.5813 85.2243 47.9374 85.0387 48.3251 85.3051C48.7144 85.5727 48.8555 86.1023 48.6843 86.6773L48.6831 86.6811C48.5131 87.2523 48.1613 87.4501 47.7671 87.1792ZM49.5346 88.9255L50.0307 89.2665L50.7098 86.9855L51.3965 87.4574L51.5381 86.9818L49.6704 85.6981L49.5287 86.1738L50.2137 86.6446L49.5346 88.9255ZM50.9917 89.9269L51.4878 90.2679L51.7465 89.3987L52.2032 89.7125C52.7026 90.0557 53.1475 89.9105 53.3164 89.3431L53.3176 89.3393C53.4865 88.7719 53.2645 88.1683 52.7652 87.8251L51.8124 87.1703L50.9917 89.9269ZM52.5077 88.1981C52.7918 88.3935 52.9076 88.6825 52.8144 88.9957L52.8132 88.9996C52.7199 89.3129 52.5001 89.3735 52.2159 89.1782L51.8808 88.9478L52.1726 87.9678L52.5077 88.1981ZM53.0713 91.3562L54.1209 92.0776C54.6269 92.4254 55.0305 92.3392 55.1744 91.8558L55.1755 91.852C55.283 91.491 55.1256 91.056 54.804 90.8004L54.8074 90.789C55.0805 90.9283 55.3544 90.8059 55.4443 90.5041L55.4454 90.5003C55.5717 90.0762 55.3704 89.6157 54.9236 89.3086L53.892 88.5996L53.0713 91.3562ZM54.6681 89.6484C54.8997 89.8076 54.9985 90.0274 54.9331 90.2471L54.932 90.2509C54.8609 90.4897 54.671 90.5226 54.3917 90.3307L54.0451 90.0925L54.2607 89.3685L54.6681 89.6484ZM54.3343 90.763C54.6382 90.9718 54.7555 91.2158 54.6804 91.468L54.6793 91.4718C54.6031 91.7278 54.4066 91.7562 54.1224 91.5609L53.6953 91.2673L53.9285 90.4841L54.3343 90.763ZM55.0721 92.7313L55.5928 93.0892L55.9709 92.5436L56.8087 93.1194L56.7886 93.9111L57.3094 94.269L57.3038 90.9445L56.7207 90.5437L55.0721 92.7313ZM56.8473 91.275L56.8571 91.2818L56.8222 92.6086L56.2144 92.1909L56.8473 91.275ZM57.5525 94.4361L58.0469 94.7759L58.5844 92.9706L58.5943 92.9774L59.1311 95.521L59.5615 95.8168L60.3822 93.0602L59.8878 92.7203L59.3542 94.5122L59.3444 94.5055L58.8069 91.9775L58.3732 91.6794L57.5525 94.4361ZM59.9573 96.0889L60.4534 96.4298L60.7048 95.5855L61.0216 95.4188L61.3536 97.0485L61.9466 97.4561L61.495 95.2909L62.7066 94.6577L62.1546 94.2783L60.9103 94.9419L60.8988 94.934L61.2742 93.6732L60.7781 93.3322L59.9573 96.0889Z" fill="white"/>
</g>
<g clip-path="url(#clip1_1_446)">
<g filter="url(#filter3_bii_1_446)">
<rect width="70.464" height="111.789" rx="3.57578" transform="matrix(-0.475931 -0.879483 0.760406 -0.649448 117.489 220)" fill="#00674C" fill-opacity="0.7"/>
</g>
<rect opacity="0.48" width="14.6236" height="14.6236" rx="6.4364" transform="matrix(0.760406 -0.649448 0.475931 0.879483 150.191 110.336)" fill="#3A3A3A"/>
<rect opacity="0.7" width="14.6236" height="14.6236" rx="6.4364" transform="matrix(0.760406 -0.649448 0.475931 0.879483 156.904 104.603)" fill="white"/>
<g filter="url(#filter4_i_1_446)">
<rect width="14.8402" height="10.6156" rx="1.6687" transform="matrix(0.760406 -0.649448 0.475931 0.879483 105.069 170.396)" fill="url(#paint2_linear_1_446)"/>
</g>
<path d="M106.804 173.638L110.642 170.361C110.418 169.291 110.138 166.929 110.814 166.046C111.171 165.915 112.087 165.757 112.893 166.181M108.424 176.631L112.261 173.354C113.063 174.836 114.793 174.943 115.557 174.811C116.322 173.629 116.122 171.26 115.927 170.223L119.721 166.982M118.487 164.702L114.693 167.943C114.32 167.717 113.616 167.064 113.78 166.256" stroke="url(#paint3_linear_1_446)" stroke-width="0.143031"/>
<path d="M122.31 161.974C122.602 162.142 123.176 162.683 123.135 163.498M122.92 160.652C123.371 160.929 124.285 161.84 124.338 163.272M123.414 159.394C124.012 159.777 125.25 161.051 125.411 163.086M124.034 158.203C124.768 158.632 126.293 160.153 126.521 162.8" stroke="white" stroke-width="0.524448" stroke-linecap="round" stroke-linejoin="round"/>
<path d="M124.507 203.16C125.158 202.604 125.29 201.756 124.855 200.951L124.853 200.947C124.418 200.145 123.74 199.988 123.091 200.542C122.444 201.095 122.307 201.945 122.743 202.749L122.745 202.753C123.18 203.558 123.857 203.715 124.507 203.16ZM124.265 202.711C123.905 203.018 123.498 202.884 123.212 202.354L123.21 202.351C122.923 201.821 122.976 201.297 123.334 200.991C123.693 200.684 124.1 200.818 124.386 201.346L124.388 201.35C124.671 201.874 124.628 202.4 124.265 202.711ZM126.236 201.619L126.694 201.228L125.561 199.135L126.194 198.594L125.958 198.158L124.235 199.63L124.471 200.066L125.103 199.526L126.236 201.619ZM127.58 200.471L128.038 200.08L127.606 199.283L128.028 198.923C128.488 198.529 128.61 197.923 128.328 197.402L128.326 197.399C128.045 196.878 127.551 196.797 127.09 197.191L126.211 197.942L127.58 200.471ZM127.205 197.706C127.467 197.482 127.708 197.509 127.864 197.797L127.866 197.8C128.021 198.088 127.954 198.381 127.692 198.605L127.382 198.869L126.896 197.97L127.205 197.706ZM129.499 198.832L130.467 198.005C130.934 197.606 131.074 197.082 130.834 196.639L130.832 196.635C130.653 196.304 130.298 196.243 129.979 196.477L129.974 196.466C130.195 196.223 130.249 195.831 130.099 195.554L130.097 195.551C129.886 195.162 129.494 195.138 129.082 195.49L128.13 196.303L129.499 198.832ZM129.176 195.983C129.39 195.801 129.578 195.809 129.687 196.011L129.689 196.014C129.808 196.233 129.737 196.476 129.48 196.696L129.16 196.969L128.8 196.304L129.176 195.983ZM129.729 197.009C130.009 196.769 130.222 196.769 130.347 197.001L130.349 197.004C130.476 197.239 130.4 197.486 130.137 197.71L129.743 198.047L129.354 197.328L129.729 197.009ZM131.345 197.256L131.826 196.845L131.659 196.091L132.432 195.43L132.929 195.903L133.409 195.493L131.278 193.614L130.74 194.074L131.345 197.256ZM131.269 194.339L131.279 194.331L132.111 195.125L131.55 195.604L131.269 194.339ZM133.634 195.301L134.09 194.911L133.193 193.255L133.203 193.247L135.09 194.057L135.487 193.718L134.118 191.188L133.662 191.578L134.552 193.222L134.543 193.23L132.665 192.43L132.265 192.771L133.634 195.301ZM135.853 193.406L136.31 193.015L135.891 192.24L135.937 191.773L137.141 192.306L137.688 191.838L136.084 191.142L136.263 189.357L135.754 189.791L135.578 191.633L135.568 191.642L134.941 190.485L134.484 190.876L135.853 193.406Z" fill="white"/>
</g>
</g>
<defs>
<filter id="filter0_d_1_446" x="0.239414" y="-2.51263" width="235.273" height="266.037" filterUnits="userSpaceOnUse" color-interpolation-filters="sRGB">
<feFlood flood-opacity="0" result="BackgroundImageFix"/>
<feColorMatrix in="SourceAlpha" type="matrix" values="0 0 0 0 0 0 0 0 0 0 0 0 0 0 0 0 0 0 127 0" result="hardAlpha"/>
<feOffset dy="10.5059"/>
<feGaussianBlur stdDeviation="16.5093"/>
<feComposite in2="hardAlpha" operator="out"/>
<feColorMatrix type="matrix" values="0 0 0 0 0.196597 0 0 0 0 0.316667 0 0 0 0 0.28019 0 0 0 0.14 0"/>
<feBlend mode="normal" in2="BackgroundImageFix" result="effect1_dropShadow_1_446"/>
<feBlend mode="normal" in="SourceGraphic" in2="effect1_dropShadow_1_446" result="shape"/>
</filter>
<filter id="filter1_bii_1_446" x="22.1866" y="9.55171" width="134.378" height="151.749" filterUnits="userSpaceOnUse" color-interpolation-filters="sRGB">
<feFlood flood-opacity="0" result="BackgroundImageFix"/>
<feGaussianBlur in="BackgroundImage" stdDeviation="5.95963"/>
<feComposite in2="SourceAlpha" operator="in" result="effect1_backgroundBlur_1_446"/>
<feBlend mode="normal" in="SourceGraphic" in2="effect1_backgroundBlur_1_446" result="shape"/>
<feColorMatrix in="SourceAlpha" type="matrix" values="0 0 0 0 0 0 0 0 0 0 0 0 0 0 0 0 0 0 127 0" result="hardAlpha"/>
<feOffset dx="-0.0953541" dy="-0.0953541"/>
<feGaussianBlur stdDeviation="0.0715156"/>
<feComposite in2="hardAlpha" operator="arithmetic" k2="-1" k3="1"/>
<feColorMatrix type="matrix" values="0 0 0 0 0 0 0 0 0 0 0 0 0 0 0 0 0 0 0.36 0"/>
<feBlend mode="normal" in2="shape" result="effect2_innerShadow_1_446"/>
<feColorMatrix in="SourceAlpha" type="matrix" values="0 0 0 0 0 0 0 0 0 0 0 0 0 0 0 0 0 0 127 0" result="hardAlpha"/>
<feOffset dx="0.238385" dy="0.190708"/>
<feGaussianBlur stdDeviation="0.0953541"/>
<feComposite in2="hardAlpha" operator="arithmetic" k2="-1" k3="1"/>
<feColorMatrix type="matrix" values="0 0 0 0 1 0 0 0 0 1 0 0 0 0 1 0 0 0 0.25 0"/>
<feBlend mode="normal" in2="effect2_innerShadow_1_446" result="effect3_innerShadow_1_446"/>
</filter>
<filter id="filter2_i_1_446" x="54.6757" y="50.6922" width="14.4681" height="17.2069" filterUnits="userSpaceOnUse" color-interpolation-filters="sRGB">
<feFlood flood-opacity="0" result="BackgroundImageFix"/>
<feBlend mode="normal" in="SourceGraphic" in2="BackgroundImageFix" result="shape"/>
<feColorMatrix in="SourceAlpha" type="matrix" values="0 0 0 0 0 0 0 0 0 0 0 0 0 0 0 0 0 0 127 0" result="hardAlpha"/>
<feOffset dx="-0.143031" dy="-0.143031"/>
<feComposite in2="hardAlpha" operator="arithmetic" k2="-1" k3="1"/>
<feColorMatrix type="matrix" values="0 0 0 0 0 0 0 0 0 0 0 0 0 0 0 0 0 0 0.25 0"/>
<feBlend mode="normal" in2="shape" result="effect1_innerShadow_1_446"/>
</filter>
<filter id="filter3_bii_1_446" x="73.2468" y="75.0652" width="139.954" height="155.297" filterUnits="userSpaceOnUse" color-interpolation-filters="sRGB">
<feFlood flood-opacity="0" result="BackgroundImageFix"/>
<feGaussianBlur in="BackgroundImage" stdDeviation="5.95963"/>
<feComposite in2="SourceAlpha" operator="in" result="effect1_backgroundBlur_1_446"/>
<feBlend mode="normal" in="SourceGraphic" in2="effect1_backgroundBlur_1_446" result="shape"/>
<feColorMatrix in="SourceAlpha" type="matrix" values="0 0 0 0 0 0 0 0 0 0 0 0 0 0 0 0 0 0 127 0" result="hardAlpha"/>
<feOffset dx="-0.0953541" dy="-0.0953541"/>
<feGaussianBlur stdDeviation="0.0715156"/>
<feComposite in2="hardAlpha" operator="arithmetic" k2="-1" k3="1"/>
<feColorMatrix type="matrix" values="0 0 0 0 0 0 0 0 0 0 0 0 0 0 0 0 0 0 0.36 0"/>
<feBlend mode="normal" in2="shape" result="effect2_innerShadow_1_446"/>
<feColorMatrix in="SourceAlpha" type="matrix" values="0 0 0 0 0 0 0 0 0 0 0 0 0 0 0 0 0 0 127 0" result="hardAlpha"/>
<feOffset dx="0.238385" dy="0.190708"/>
<feGaussianBlur stdDeviation="0.0953541"/>
<feComposite in2="hardAlpha" operator="arithmetic" k2="-1" k3="1"/>
<feColorMatrix type="matrix" values="0 0 0 0 1 0 0 0 0 1 0 0 0 0 1 0 0 0 0.25 0"/>
<feBlend mode="normal" in2="effect2_innerShadow_1_446" result="effect3_innerShadow_1_446"/>
</filter>
<filter id="filter4_i_1_446" x="105.635" y="161.485" width="15.2051" height="17.5205" filterUnits="userSpaceOnUse" color-interpolation-filters="sRGB">
<feFlood flood-opacity="0" result="BackgroundImageFix"/>
<feBlend mode="normal" in="SourceGraphic" in2="BackgroundImageFix" result="shape"/>
<feColorMatrix in="SourceAlpha" type="matrix" values="0 0 0 0 0 0 0 0 0 0 0 0 0 0 0 0 0 0 127 0" result="hardAlpha"/>
<feOffset dx="-0.143031" dy="-0.143031"/>
<feComposite in2="hardAlpha" operator="arithmetic" k2="-1" k3="1"/>
<feColorMatrix type="matrix" values="0 0 0 0 0 0 0 0 0 0 0 0 0 0 0 0 0 0 0.25 0"/>
<feBlend mode="normal" in2="shape" result="effect1_innerShadow_1_446"/>
</filter>
<linearGradient id="paint0_linear_1_446" x1="0" y1="0" x2="13.2966" y2="10.6156" gradientUnits="userSpaceOnUse">
<stop stop-color="#ABABAB"/>
<stop offset="0.3125" stop-color="white"/>
<stop offset="0.630208" stop-color="#BDBDBD"/>
<stop offset="1" stop-color="#5E5E5E"/>
</linearGradient>
<linearGradient id="paint1_linear_1_446" x1="57.5856" y1="50.8835" x2="67.4477" y2="66.527" gradientUnits="userSpaceOnUse">
<stop stop-color="#7D7D7D"/>
<stop offset="0.494792" stop-color="white"/>
<stop offset="1" stop-color="#1C1C1C"/>
</linearGradient>
<linearGradient id="paint2_linear_1_446" x1="0" y1="0" x2="13.2966" y2="10.6156" gradientUnits="userSpaceOnUse">
<stop stop-color="#ABABAB"/>
<stop offset="0.3125" stop-color="white"/>
<stop offset="0.630208" stop-color="#BDBDBD"/>
<stop offset="1" stop-color="#5E5E5E"/>
</linearGradient>
<linearGradient id="paint3_linear_1_446" x1="105.764" y1="170.568" x2="120.36" y2="171.319" gradientUnits="userSpaceOnUse">
<stop stop-color="#7D7D7D"/>
<stop offset="0.494792" stop-color="white"/>
<stop offset="1" stop-color="#1C1C1C"/>
</linearGradient>
<clipPath id="clip0_1_446">
<rect width="111.789" height="70.464" fill="white" transform="matrix(0.824126 0.566406 -0.285354 0.958422 53.3651 20)"/>
</clipPath>
<clipPath id="clip1_1_446">
<rect width="111.789" height="70.464" fill="white" transform="matrix(0.760406 -0.649448 0.475931 0.879483 83.9532 158.028)"/>
</clipPath>
</defs>
</svg>
