<svg width="270" height="164" viewBox="0 0 270 164" fill="none" xmlns="http://www.w3.org/2000/svg">
<path d="M75.4424 135.008C75.4424 101.932 102.251 75.1178 135.327 75.1178C168.403 75.1178 195.206 101.932 195.206 135.008C195.206 168.077 168.403 194.891 135.327 194.891C102.251 194.891 75.4424 168.077 75.4424 135.008Z" fill="#6EC72D" fill-opacity="0.4"/>
<path d="M176.858 59.1496C176.858 40.1975 192.225 24.8307 211.177 24.8307C230.136 24.8307 245.509 40.1975 245.509 59.1496C245.509 78.1078 230.136 93.4746 211.177 93.4746C192.225 93.4746 176.858 78.1078 176.858 59.1496ZM0 135.007C0 60.4964 60.3577 0.0909991 134.839 0V48.7878C87.2941 48.8727 48.7829 87.4383 48.7829 135.007C48.7829 182.624 87.3853 221.219 134.997 221.219C182.33 221.219 221.218 182.988 221.218 134.679L270 134.708C270 209.564 209.563 270 134.997 270C60.4369 270 0 209.566 0 135.007Z" fill="#6EC72D" fill-opacity="0.4"/>
</svg>
